<svg xmlns="http://www.w3.org/2000/svg" xmlns:xlink="http://www.w3.org/1999/xlink" width="100" zoomAndPan="magnify" viewBox="0 0 75 74.999997" height="100" preserveAspectRatio="xMidYMid meet" version="1.0"><defs><clipPath id="7d455c9dc2"><path d="M 1 6.1875 L 74 6.1875 L 74 69 L 1 69 Z M 1 6.1875 " clip-rule="nonzero"/></clipPath></defs><g clip-path="url(#7d455c9dc2)"><path fill="#666666" d="M 67.367188 11.90625 C 63.679688 8.214844 58.773438 6.183594 53.558594 6.183594 C 48.34375 6.183594 43.4375 8.214844 39.75 11.90625 L 37.507812 14.144531 L 35.269531 11.902344 C 31.578125 8.214844 26.675781 6.183594 21.457031 6.183594 C 16.242188 6.183594 11.335938 8.214844 7.648438 11.902344 C 0.0351562 19.519531 0.0351562 31.90625 7.648438 39.523438 L 36.539062 68.414062 C 36.804688 68.679688 37.15625 68.816406 37.507812 68.816406 C 37.859375 68.816406 38.210938 68.679688 38.476562 68.414062 L 67.367188 39.523438 C 74.984375 31.910156 74.984375 19.519531 67.367188 11.90625 Z M 67.367188 11.90625 " fill-opacity="1" fill-rule="nonzero"/></g></svg>