<svg xmlns="http://www.w3.org/2000/svg" xmlns:xlink="http://www.w3.org/1999/xlink" width="100" zoomAndPan="magnify" viewBox="0 0 75 74.999997" height="100" preserveAspectRatio="xMidYMid meet" version="1.0"><defs><clipPath id="cccb8b4501"><path d="M 9.375 0 L 65.625 0 L 65.625 75 L 9.375 75 Z M 9.375 0 " clip-rule="nonzero"/></clipPath></defs><g clip-path="url(#cccb8b4501)"><path fill="#666666" d="M 37.5 0 C 21.988281 0 9.375 12.613281 9.375 28.125 C 9.375 47.621094 34.761719 73.234375 35.839844 74.316406 C 36.300781 74.769531 36.898438 75 37.5 75 C 38.101562 75 38.699219 74.769531 39.160156 74.316406 C 40.238281 73.234375 65.625 47.621094 65.625 28.125 C 65.625 12.613281 53.011719 0 37.5 0 Z M 37.5 42.1875 C 29.746094 42.1875 23.4375 35.878906 23.4375 28.125 C 23.4375 20.371094 29.746094 14.0625 37.5 14.0625 C 45.253906 14.0625 51.5625 20.371094 51.5625 28.125 C 51.5625 35.878906 45.253906 42.1875 37.5 42.1875 Z M 37.5 42.1875 " fill-opacity="1" fill-rule="nonzero"/></g></svg>