<svg xmlns="http://www.w3.org/2000/svg" xmlns:xlink="http://www.w3.org/1999/xlink" width="100" zoomAndPan="magnify" viewBox="0 0 75 74.999997" height="100" preserveAspectRatio="xMidYMid meet" version="1.0"><defs><clipPath id="9f66014bd0"><path d="M 0 3.421875 L 69 3.421875 L 69 71.671875 L 0 71.671875 Z M 0 3.421875 " clip-rule="nonzero"/></clipPath></defs><g clip-path="url(#9f66014bd0)"><path fill="#666666" d="M 63.171875 33.324219 C 63.367188 34.691406 63.472656 36.089844 63.472656 37.507812 C 63.472656 53.71875 50.289062 66.90625 34.078125 66.90625 C 17.871094 66.90625 4.683594 53.71875 4.683594 37.507812 C 4.683594 21.300781 17.871094 8.113281 34.078125 8.113281 C 42.519531 8.113281 50.132812 11.695312 55.5 17.410156 L 58.808594 14.097656 C 52.59375 7.535156 43.808594 3.429688 34.078125 3.429688 C 15.289062 3.429688 0 18.71875 0 37.507812 C 0 56.300781 15.289062 71.589844 34.078125 71.589844 C 52.871094 71.589844 68.160156 56.300781 68.160156 37.507812 C 68.160156 34.691406 67.808594 31.957031 67.160156 29.335938 L 63.171875 33.324219 " fill-opacity="1" fill-rule="nonzero"/></g><path fill="#666666" d="M 72.839844 11.859375 C 70.679688 9.703125 67.179688 9.703125 65.019531 11.859375 L 34.296875 42.585938 L 23.011719 31.300781 C 20.851562 29.140625 17.351562 29.140625 15.191406 31.300781 C 13.03125 33.460938 13.03125 36.960938 15.191406 39.121094 L 30.386719 54.316406 C 31.464844 55.394531 32.882812 55.933594 34.296875 55.933594 C 35.710938 55.933594 37.125 55.394531 38.207031 54.316406 L 72.839844 19.683594 C 75 17.523438 75 14.023438 72.839844 11.859375 " fill-opacity="1" fill-rule="nonzero"/></svg>