<svg xmlns="http://www.w3.org/2000/svg" xmlns:xlink="http://www.w3.org/1999/xlink" width="100" zoomAndPan="magnify" viewBox="0 0 75 74.999997" height="100" preserveAspectRatio="xMidYMid meet" version="1.0"><defs><clipPath id="2c1d6e6583"><path d="M 0 5.578125 L 64 5.578125 L 64 69.328125 L 0 69.328125 Z M 0 5.578125 " clip-rule="nonzero"/></clipPath></defs><g clip-path="url(#2c1d6e6583)"><path fill="#666666" d="M 58.96875 61.863281 C 58.96875 63.332031 57.773438 64.523438 56.304688 64.523438 L 7.5625 64.523438 C 6.09375 64.523438 4.898438 63.332031 4.898438 61.863281 L 4.898438 13.117188 C 4.898438 11.652344 6.09375 10.457031 7.5625 10.457031 L 56.304688 10.457031 C 57.773438 10.457031 58.96875 11.652344 58.96875 13.117188 L 58.96875 15.898438 L 63.710938 11.660156 C 63.027344 8.195312 59.96875 5.570312 56.304688 5.570312 L 7.5625 5.570312 C 3.398438 5.570312 0.0117188 8.957031 0.0117188 13.117188 L 0.0117188 61.863281 C 0.0117188 66.023438 3.398438 69.410156 7.5625 69.410156 L 56.304688 69.410156 C 60.46875 69.410156 63.855469 66.023438 63.855469 61.863281 L 63.855469 30.667969 L 58.96875 36.136719 L 58.96875 61.863281 " fill-opacity="1" fill-rule="nonzero"/></g><path fill="#666666" d="M 73.894531 10.777344 C 72.71875 9.460938 70.699219 9.347656 69.386719 10.523438 L 31.542969 44.332031 L 16.78125 32.695312 C 15.554688 31.730469 13.78125 31.6875 12.503906 32.695312 C 11.003906 33.878906 10.746094 36.054688 11.925781 37.550781 L 27.328125 57.089844 C 27.523438 57.335938 27.765625 57.59375 28.007812 57.8125 C 30.363281 59.914062 33.976562 59.710938 36.078125 57.359375 L 36.320312 57.089844 L 73.894531 15.03125 C 74.964844 13.835938 74.988281 12 73.894531 10.777344 " fill-opacity="1" fill-rule="nonzero"/></svg>