<svg xmlns="http://www.w3.org/2000/svg" xmlns:xlink="http://www.w3.org/1999/xlink" width="100" zoomAndPan="magnify" viewBox="0 0 75 74.999997" height="100" preserveAspectRatio="xMidYMid meet" version="1.0"><defs><clipPath id="c9acfa6487"><path d="M 7.5 0 L 67.5 0 L 67.5 75 L 7.5 75 Z M 7.5 0 " clip-rule="nonzero"/></clipPath></defs><g clip-path="url(#c9acfa6487)"><path fill="#666666" d="M 37.015625 15.921875 C 37.121094 17.613281 34.371094 17.816406 34.257812 16.097656 C 34.144531 14.382812 36.902344 14.195312 37.015625 15.921875 Z M 37.667969 4.832031 C 37.492188 4.832031 37.324219 4.863281 37.160156 4.929688 C 37 5 36.855469 5.09375 36.734375 5.21875 C 36.609375 5.339844 36.511719 5.484375 36.445312 5.644531 C 36.378906 5.808594 36.347656 5.976562 36.347656 6.152344 L 36.347656 7.894531 L 34.636719 7.894531 C 34.460938 7.894531 34.292969 7.929688 34.128906 7.996094 C 33.96875 8.0625 33.824219 8.160156 33.703125 8.285156 C 33.578125 8.40625 33.484375 8.550781 33.414062 8.710938 C 33.347656 8.875 33.316406 9.042969 33.316406 9.21875 C 33.316406 9.394531 33.347656 9.5625 33.414062 9.722656 C 33.484375 9.886719 33.578125 10.027344 33.703125 10.152344 C 33.824219 10.277344 33.96875 10.371094 34.128906 10.4375 C 34.292969 10.507812 34.460938 10.539062 34.636719 10.539062 L 36.347656 10.539062 L 36.347656 12.214844 C 36.347656 12.390625 36.378906 12.558594 36.445312 12.71875 C 36.511719 12.882812 36.609375 13.023438 36.734375 13.148438 C 36.855469 13.273438 37 13.367188 37.160156 13.433594 C 37.324219 13.5 37.492188 13.535156 37.667969 13.535156 C 37.84375 13.535156 38.011719 13.5 38.171875 13.433594 C 38.335938 13.367188 38.476562 13.273438 38.601562 13.148438 C 38.726562 13.023438 38.820312 12.882812 38.886719 12.71875 C 38.957031 12.558594 38.988281 12.390625 38.988281 12.214844 L 38.988281 10.539062 L 40.699219 10.539062 C 40.875 10.539062 41.042969 10.507812 41.203125 10.4375 C 41.367188 10.371094 41.507812 10.277344 41.632812 10.152344 C 41.757812 10.027344 41.851562 9.886719 41.917969 9.722656 C 41.984375 9.5625 42.019531 9.394531 42.019531 9.21875 C 42.019531 9.042969 41.984375 8.875 41.917969 8.710938 C 41.851562 8.550781 41.757812 8.40625 41.632812 8.285156 C 41.507812 8.160156 41.367188 8.0625 41.203125 7.996094 C 41.042969 7.929688 40.875 7.894531 40.699219 7.894531 L 38.988281 7.894531 L 38.988281 6.132812 C 38.988281 5.960938 38.953125 5.792969 38.882812 5.632812 C 38.816406 5.472656 38.71875 5.332031 38.597656 5.210938 C 38.472656 5.089844 38.328125 4.996094 38.167969 4.929688 C 38.007812 4.863281 37.839844 4.832031 37.667969 4.832031 Z M 66.054688 74.761719 L 8.855469 74.761719 C 8.652344 74.757812 8.457031 74.710938 8.273438 74.621094 C 8.089844 74.527344 7.9375 74.402344 7.8125 74.238281 C 7.6875 74.078125 7.605469 73.894531 7.5625 73.695312 C 7.523438 73.492188 7.527344 73.292969 7.578125 73.09375 C 7.921875 71.859375 11.675781 58.273438 11.984375 57.234375 C 12.53125 55.234375 13.992188 54.292969 15.933594 53.886719 L 28.222656 51.316406 C 27.074219 50.789062 25.972656 50.175781 24.917969 49.472656 C 24.78125 49.375 24.664062 49.25 24.574219 49.105469 C 24.484375 48.960938 24.421875 48.804688 24.390625 48.636719 C 24.363281 48.464844 24.363281 48.296875 24.398438 48.132812 C 24.433594 47.964844 24.5 47.808594 24.59375 47.667969 C 24.691406 47.523438 24.808594 47.40625 24.949219 47.308594 C 25.09375 47.210938 25.246094 47.144531 25.414062 47.109375 C 25.582031 47.074219 25.75 47.070312 25.917969 47.101562 C 26.085938 47.128906 26.246094 47.1875 26.390625 47.28125 C 27.300781 47.882812 28.253906 48.414062 29.246094 48.875 L 29.730469 47.175781 C 28.328125 46.050781 27.140625 44.734375 26.164062 43.226562 C 25.191406 41.722656 24.472656 40.101562 24.019531 38.363281 C 23.519531 38.140625 23.058594 37.851562 22.636719 37.496094 C 22.21875 37.140625 21.859375 36.734375 21.558594 36.273438 C 21.257812 35.8125 21.027344 35.320312 20.871094 34.796875 C 20.710938 34.269531 20.628906 33.730469 20.628906 33.183594 L 20.628906 30.539062 C 20.636719 30.167969 20.71875 29.8125 20.863281 29.472656 C 21.011719 29.128906 21.21875 28.828125 21.484375 28.570312 C 21.746094 28.308594 22.050781 28.105469 22.394531 27.960938 C 22.734375 27.816406 23.09375 27.742188 23.464844 27.738281 C 25.007812 27.660156 26.523438 28.011719 28.0625 28.011719 C 28.734375 28.011719 29.398438 27.964844 30.0625 27.867188 C 30.722656 27.769531 31.375 27.621094 32.015625 27.425781 C 32.65625 27.230469 33.277344 26.988281 33.882812 26.699219 C 34.484375 26.410156 35.066406 26.078125 35.617188 25.699219 C 36.171875 25.324219 36.695312 24.90625 37.1875 24.453125 C 37.675781 23.996094 38.132812 23.507812 38.550781 22.984375 C 38.96875 22.460938 39.34375 21.910156 39.679688 21.332031 C 40.015625 20.75 40.304688 20.148438 40.546875 19.527344 C 40.636719 19.304688 40.773438 19.121094 40.960938 18.976562 C 41.148438 18.832031 41.359375 18.746094 41.597656 18.71875 C 41.832031 18.6875 42.058594 18.722656 42.277344 18.824219 C 42.492188 18.921875 42.667969 19.066406 42.804688 19.261719 C 43.050781 19.65625 43.226562 20.078125 43.324219 20.53125 C 43.746094 22.273438 44.46875 23.878906 45.492188 25.351562 C 46.011719 26.085938 46.660156 26.671875 47.441406 27.117188 C 48.222656 27.5625 49.0625 27.816406 49.957031 27.886719 C 50.960938 27.886719 52.039062 27.625 52.9375 28.074219 C 54.125 28.671875 54.398438 30.230469 54.425781 31.597656 C 54.488281 32.835938 54.335938 34.050781 53.96875 35.234375 C 53.578125 36.46875 52.8125 37.394531 51.675781 38.011719 C 51.429688 38.105469 51.203125 38.238281 51.007812 38.417969 C 50.84375 38.625 50.734375 38.863281 50.679688 39.121094 C 50.195312 40.707031 49.492188 42.1875 48.566406 43.5625 C 47.644531 44.941406 46.539062 46.152344 45.253906 47.199219 L 45.878906 49.445312 C 48.019531 48.34375 49.882812 46.886719 51.46875 45.078125 C 53.058594 43.269531 54.257812 41.234375 55.078125 38.972656 C 56.730469 34.421875 57.261719 29.746094 56.664062 24.945312 C 56.550781 22.722656 55.941406 20.648438 54.839844 18.714844 C 54.5625 18.242188 54.226562 17.816406 53.832031 17.4375 C 53.4375 17.054688 53 16.734375 52.519531 16.46875 C 52.039062 16.207031 51.53125 16.011719 51 15.886719 C 50.464844 15.761719 49.925781 15.707031 49.375 15.730469 C 49.144531 16.257812 48.988281 16.8125 48.910156 17.386719 C 48.859375 17.675781 48.742188 17.9375 48.550781 18.164062 C 48.363281 18.390625 48.128906 18.554688 47.851562 18.652344 C 47.570312 18.695312 47.289062 18.671875 47.015625 18.59375 C 44.542969 17.972656 42.039062 17.550781 39.5 17.324219 C 39.324219 17.3125 39.15625 17.269531 39 17.195312 C 38.84375 17.117188 38.703125 17.015625 38.585938 16.882812 C 38.46875 16.753906 38.382812 16.605469 38.324219 16.4375 C 38.265625 16.273438 38.242188 16.101562 38.253906 15.925781 C 38.261719 15.753906 38.304688 15.585938 38.382812 15.425781 C 38.457031 15.269531 38.5625 15.132812 38.691406 15.015625 C 38.824219 14.898438 38.972656 14.808594 39.136719 14.753906 C 39.304688 14.695312 39.472656 14.671875 39.648438 14.679688 C 41.992188 14.828125 44.300781 15.210938 46.566406 15.824219 L 49.789062 5.253906 C 45.816406 4.148438 41.765625 3.597656 37.640625 3.597656 C 33.515625 3.597656 29.464844 4.148438 25.492188 5.253906 L 28.742188 15.824219 C 29.542969 15.613281 30.355469 15.429688 31.175781 15.269531 C 31.347656 15.238281 31.519531 15.238281 31.691406 15.277344 C 31.863281 15.3125 32.019531 15.378906 32.164062 15.476562 C 32.308594 15.574219 32.429688 15.699219 32.527344 15.84375 C 32.625 15.992188 32.6875 16.152344 32.71875 16.324219 C 32.753906 16.496094 32.75 16.667969 32.714844 16.839844 C 32.679688 17.011719 32.613281 17.171875 32.515625 17.316406 C 32.414062 17.460938 32.292969 17.582031 32.144531 17.675781 C 32 17.773438 31.839844 17.835938 31.667969 17.871094 C 30.511719 18.101562 29.371094 18.394531 28.25 18.75 C 28.082031 18.800781 27.910156 18.816406 27.734375 18.800781 C 27.558594 18.78125 27.394531 18.730469 27.242188 18.648438 C 27.085938 18.566406 26.953125 18.457031 26.839844 18.324219 C 26.726562 18.1875 26.644531 18.039062 26.59375 17.871094 L 25.121094 12.820312 C 22.628906 14.777344 20.804688 18.054688 19.695312 22.601562 C 17.78125 30.433594 18.230469 36.839844 21.03125 41.660156 C 21.113281 41.808594 21.164062 41.96875 21.183594 42.140625 C 21.199219 42.308594 21.1875 42.476562 21.140625 42.640625 C 21.09375 42.808594 21.015625 42.957031 20.914062 43.09375 C 20.808594 43.226562 20.679688 43.339844 20.535156 43.425781 C 20.386719 43.511719 20.226562 43.566406 20.058594 43.589844 C 19.886719 43.613281 19.722656 43.605469 19.554688 43.566406 C 19.386719 43.527344 19.234375 43.457031 19.097656 43.355469 C 18.957031 43.253906 18.84375 43.132812 18.75 42.988281 C 15.597656 37.5625 15.050781 30.496094 17.128906 21.976562 C 18.496094 16.382812 20.917969 12.433594 24.320312 10.179688 L 22.644531 4.734375 C 22.597656 4.566406 22.582031 4.394531 22.601562 4.222656 C 22.621094 4.050781 22.671875 3.886719 22.753906 3.730469 C 22.835938 3.578125 22.945312 3.445312 23.078125 3.335938 C 23.210938 3.222656 23.359375 3.140625 23.527344 3.085938 C 28.148438 1.65625 32.882812 0.945312 37.71875 0.945312 C 42.558594 0.945312 47.289062 1.65625 51.914062 3.085938 C 52.078125 3.140625 52.226562 3.222656 52.359375 3.335938 C 52.492188 3.449219 52.601562 3.582031 52.683594 3.734375 C 52.765625 3.886719 52.816406 4.050781 52.835938 4.222656 C 52.855469 4.394531 52.839844 4.566406 52.796875 4.734375 L 50.230469 13.078125 C 51.394531 13.167969 52.5 13.476562 53.542969 14 C 54.585938 14.527344 55.488281 15.226562 56.257812 16.109375 C 56.632812 16.574219 56.964844 17.066406 57.253906 17.589844 C 58.910156 20.355469 59.402344 23.710938 59.480469 26.882812 C 59.628906 31.082031 59.097656 35.195312 57.886719 39.21875 C 57.261719 41.09375 56.378906 42.839844 55.246094 44.460938 C 54.363281 45.867188 53.308594 47.128906 52.082031 48.25 C 50.640625 49.429688 49.128906 50.507812 47.542969 51.480469 L 58.996094 53.886719 C 59.453125 53.925781 59.890625 54.035156 60.3125 54.207031 C 60.734375 54.382812 61.121094 54.613281 61.472656 54.90625 C 61.820312 55.199219 62.121094 55.535156 62.367188 55.921875 C 62.613281 56.304688 62.796875 56.714844 62.917969 57.15625 C 63.871094 60.582031 66.796875 71.199219 67.324219 73.078125 C 67.378906 73.277344 67.386719 73.476562 67.347656 73.679688 C 67.308594 73.882812 67.226562 74.066406 67.101562 74.230469 C 66.980469 74.394531 66.824219 74.523438 66.640625 74.617188 C 66.457031 74.710938 66.261719 74.757812 66.054688 74.761719 Z M 37.332031 47.296875 L 37.402344 47.296875 C 42.488281 47.296875 47.023438 43.09375 48.46875 37.050781 C 48.59375 36.542969 48.910156 36.222656 49.410156 36.089844 C 49.734375 36.003906 50.039062 35.871094 50.316406 35.6875 C 50.597656 35.503906 50.839844 35.277344 51.046875 35.015625 C 51.25 34.75 51.410156 34.460938 51.519531 34.140625 C 51.628906 33.824219 51.683594 33.5 51.683594 33.164062 L 51.683594 30.523438 C 51.683594 30.457031 51.65625 30.40625 51.597656 30.371094 C 50.019531 30.765625 48.496094 30.613281 47.023438 29.921875 C 45.703125 29.246094 44.5625 28.347656 43.59375 27.222656 C 42.628906 26.101562 41.910156 24.835938 41.4375 23.429688 C 40.710938 24.542969 39.855469 25.550781 38.875 26.449219 C 37.894531 27.347656 36.816406 28.113281 35.644531 28.746094 C 34.472656 29.375 33.242188 29.851562 31.953125 30.175781 C 30.660156 30.5 29.351562 30.660156 28.019531 30.652344 C 27.042969 30.652344 23.933594 30.40625 23.375 30.363281 C 23.277344 30.378906 23.226562 30.4375 23.226562 30.539062 L 23.226562 33.183594 C 23.230469 33.511719 23.285156 33.832031 23.390625 34.144531 C 23.5 34.457031 23.652344 34.746094 23.851562 35.007812 C 24.050781 35.269531 24.289062 35.492188 24.5625 35.679688 C 24.835938 35.863281 25.128906 36 25.445312 36.089844 C 25.945312 36.230469 26.253906 36.554688 26.371094 37.058594 C 27.765625 43.042969 32.273438 47.261719 37.332031 47.296875 Z M 32.046875 48.652344 L 30.960938 52.460938 L 37.457031 65.164062 L 43.96875 52.46875 L 42.882812 48.617188 C 41.160156 49.5 39.328125 49.941406 37.394531 49.949219 L 37.304688 49.949219 C 35.445312 49.925781 33.683594 49.492188 32.019531 48.652344 Z M 64.320312 72.117188 L 60.285156 57.492188 C 59.921875 56.6875 58.996094 56.609375 58.238281 56.425781 L 46.195312 53.914062 L 38.628906 68.6875 C 38.511719 68.90625 38.347656 69.078125 38.136719 69.207031 C 37.925781 69.335938 37.699219 69.398438 37.453125 69.398438 C 37.203125 69.398438 36.976562 69.335938 36.765625 69.207031 C 36.554688 69.078125 36.390625 68.90625 36.273438 68.6875 L 28.714844 53.914062 C 27.949219 54.027344 27.191406 54.1875 26.441406 54.390625 C 23.078125 55.09375 19.710938 55.871094 16.328125 56.496094 C 15.746094 56.601562 14.8125 56.8125 14.628906 57.492188 L 10.59375 72.117188 Z M 22.390625 46.996094 C 22.65625 47.003906 22.898438 46.9375 23.121094 46.792969 C 23.347656 46.652344 23.511719 46.460938 23.617188 46.21875 C 23.722656 45.976562 23.753906 45.722656 23.707031 45.460938 C 23.660156 45.203125 23.542969 44.976562 23.359375 44.785156 L 23.289062 44.707031 C 23.164062 44.582031 23.023438 44.488281 22.859375 44.421875 C 22.699219 44.355469 22.53125 44.320312 22.355469 44.320312 C 22.179688 44.320312 22.011719 44.355469 21.847656 44.421875 C 21.6875 44.488281 21.542969 44.582031 21.421875 44.707031 C 21.25 44.90625 21.144531 45.136719 21.105469 45.398438 C 21.066406 45.65625 21.097656 45.910156 21.199219 46.152344 C 21.300781 46.394531 21.460938 46.589844 21.675781 46.742188 C 21.890625 46.894531 22.128906 46.980469 22.390625 46.996094 Z M 22.390625 46.996094 " fill-opacity="1" fill-rule="nonzero"/></g></svg>